<svg width="240" height="109" viewBox="0 0 240 109" fill="none" xmlns="http://www.w3.org/2000/svg">
    <rect width="240" height="109" fill="white"/>
    <circle cx="61.5" cy="39.5" r="16.5" fill="#C4C4C4"/>
    <path d="M41.2383 37.9492H29.793V50H24.8516V21.5625H42.918V25.5469H29.793V34.0039H41.2383V37.9492ZM61.6617 50.3906C58.6539 50.3906 56.2125 49.4466 54.3375 47.5586C52.4755 45.6576 51.5445 43.1315 51.5445 39.9805V39.3945C51.5445 37.2852 51.9482 35.4036 52.7555 33.75C53.5758 32.0833 54.7216 30.7878 56.193 29.8633C57.6643 28.9388 59.3049 28.4766 61.1148 28.4766C63.9924 28.4766 66.2125 29.3945 67.775 31.2305C69.3505 33.0664 70.1383 35.6641 70.1383 39.0234V40.9375H56.3297C56.4729 42.6823 57.0523 44.0625 58.068 45.0781C59.0966 46.0938 60.3857 46.6016 61.9352 46.6016C64.1096 46.6016 65.8805 45.7227 67.2477 43.9648L69.8063 46.4062C68.9599 47.6693 67.8271 48.6523 66.4078 49.3555C65.0016 50.0456 63.4195 50.3906 61.6617 50.3906ZM61.0953 32.2852C59.7932 32.2852 58.7385 32.7409 57.9313 33.6523C57.137 34.5638 56.6292 35.8333 56.4078 37.4609H65.4508V37.1094C65.3466 35.5208 64.9234 34.3229 64.1813 33.5156C63.4391 32.6953 62.4104 32.2852 61.0953 32.2852ZM85.2883 50H80.5422V20H85.2883V50ZM97.982 23.7305V28.8672H101.713V32.3828H97.982V44.1797C97.982 44.987 98.1383 45.5729 98.4508 45.9375C98.7763 46.2891 99.3492 46.4648 100.17 46.4648C100.716 46.4648 101.27 46.3997 101.83 46.2695V49.9414C100.749 50.2409 99.7073 50.3906 98.7047 50.3906C95.0589 50.3906 93.2359 48.3789 93.2359 44.3555V32.3828H89.7594V28.8672H93.2359V23.7305H97.982Z" fill="#221E1E" style="mix-blend-mode:multiply"/>
    <path d="M47.4688 82H42.5469V69.3633H29.832V82H24.8906V53.5625H29.832V65.3984H42.5469V53.5625H47.4688V82ZM65.4961 82C65.2878 81.5964 65.1055 80.9388 64.9492 80.0273C63.4388 81.6029 61.5898 82.3906 59.4023 82.3906C57.2799 82.3906 55.5482 81.7852 54.207 80.5742C52.8659 79.3633 52.1953 77.8659 52.1953 76.082C52.1953 73.8294 53.0286 72.1042 54.6953 70.9062C56.375 69.6953 58.7708 69.0898 61.8828 69.0898H64.793V67.7031C64.793 66.6094 64.487 65.737 63.875 65.0859C63.263 64.4219 62.332 64.0898 61.082 64.0898C60.0013 64.0898 59.1159 64.3633 58.4258 64.9102C57.7357 65.444 57.3906 66.1276 57.3906 66.9609H52.6445C52.6445 65.8021 53.0286 64.7214 53.7969 63.7188C54.5651 62.7031 55.6068 61.9089 56.9219 61.3359C58.25 60.763 59.7279 60.4766 61.3555 60.4766C63.8294 60.4766 65.8021 61.1016 67.2734 62.3516C68.7448 63.5885 69.5 65.3333 69.5391 67.5859V77.1172C69.5391 79.0182 69.806 80.5352 70.3398 81.668V82H65.4961ZM60.2812 78.582C61.2188 78.582 62.0977 78.3542 62.918 77.8984C63.7513 77.4427 64.3763 76.8307 64.793 76.0625V72.0781H62.2344C60.4766 72.0781 59.1549 72.3841 58.2695 72.9961C57.3841 73.6081 56.9414 74.474 56.9414 75.5938C56.9414 76.5052 57.2409 77.2344 57.8398 77.7812C58.4518 78.3151 59.2656 78.582 60.2812 78.582ZM78.9141 60.8672L79.0508 63.3086C80.6133 61.4206 82.6641 60.4766 85.2031 60.4766C89.6042 60.4766 91.8438 62.9961 91.9219 68.0352V82H87.1758V68.3086C87.1758 66.9674 86.8828 65.9779 86.2969 65.3398C85.724 64.6888 84.7799 64.3633 83.4648 64.3633C81.5508 64.3633 80.125 65.2292 79.1875 66.9609V82H74.4414V60.8672H78.9141ZM95.8867 71.2773C95.8867 68.0221 96.6419 65.4115 98.1523 63.4453C99.6628 61.4661 101.688 60.4766 104.227 60.4766C106.466 60.4766 108.276 61.2578 109.656 62.8203V52H114.402V82H110.105L109.871 79.8125C108.452 81.5312 106.557 82.3906 104.188 82.3906C101.714 82.3906 99.7083 81.3945 98.1719 79.4023C96.6484 77.4102 95.8867 74.7018 95.8867 71.2773ZM100.633 71.6875C100.633 73.8359 101.043 75.5156 101.863 76.7266C102.697 77.9245 103.875 78.5234 105.398 78.5234C107.339 78.5234 108.758 77.6576 109.656 75.9258V66.9023C108.784 65.2096 107.378 64.3633 105.438 64.3633C103.901 64.3633 102.716 64.9753 101.883 66.1992C101.049 67.4102 100.633 69.2396 100.633 71.6875ZM123.816 60.8672L123.953 63.0742C125.438 61.3424 127.469 60.4766 130.047 60.4766C132.872 60.4766 134.806 61.5573 135.848 63.7188C137.384 61.5573 139.546 60.4766 142.332 60.4766C144.663 60.4766 146.395 61.1211 147.527 62.4102C148.673 63.6992 149.259 65.6003 149.285 68.1133V82H144.539V68.25C144.539 66.9089 144.246 65.9258 143.66 65.3008C143.074 64.6758 142.104 64.3633 140.75 64.3633C139.669 64.3633 138.784 64.6562 138.094 65.2422C137.417 65.8151 136.941 66.5703 136.668 67.5078L136.688 82H131.941V68.0938C131.876 65.6068 130.607 64.3633 128.133 64.3633C126.232 64.3633 124.884 65.138 124.09 66.6875V82H119.344V60.8672H123.816ZM166.785 82C166.577 81.5964 166.395 80.9388 166.238 80.0273C164.728 81.6029 162.879 82.3906 160.691 82.3906C158.569 82.3906 156.837 81.7852 155.496 80.5742C154.155 79.3633 153.484 77.8659 153.484 76.082C153.484 73.8294 154.318 72.1042 155.984 70.9062C157.664 69.6953 160.06 69.0898 163.172 69.0898H166.082V67.7031C166.082 66.6094 165.776 65.737 165.164 65.0859C164.552 64.4219 163.621 64.0898 162.371 64.0898C161.29 64.0898 160.405 64.3633 159.715 64.9102C159.025 65.444 158.68 66.1276 158.68 66.9609H153.934C153.934 65.8021 154.318 64.7214 155.086 63.7188C155.854 62.7031 156.896 61.9089 158.211 61.3359C159.539 60.763 161.017 60.4766 162.645 60.4766C165.118 60.4766 167.091 61.1016 168.562 62.3516C170.034 63.5885 170.789 65.3333 170.828 67.5859V77.1172C170.828 79.0182 171.095 80.5352 171.629 81.668V82H166.785ZM161.57 78.582C162.508 78.582 163.387 78.3542 164.207 77.8984C165.04 77.4427 165.665 76.8307 166.082 76.0625V72.0781H163.523C161.766 72.0781 160.444 72.3841 159.559 72.9961C158.673 73.6081 158.23 74.474 158.23 75.5938C158.23 76.5052 158.53 77.2344 159.129 77.7812C159.741 78.3151 160.555 78.582 161.57 78.582ZM174.91 71.2773C174.91 68.0221 175.665 65.4115 177.176 63.4453C178.686 61.4661 180.711 60.4766 183.25 60.4766C185.49 60.4766 187.299 61.2578 188.68 62.8203V52H193.426V82H189.129L188.895 79.8125C187.475 81.5312 185.581 82.3906 183.211 82.3906C180.737 82.3906 178.732 81.3945 177.195 79.4023C175.672 77.4102 174.91 74.7018 174.91 71.2773ZM179.656 71.6875C179.656 73.8359 180.066 75.5156 180.887 76.7266C181.72 77.9245 182.898 78.5234 184.422 78.5234C186.362 78.5234 187.781 77.6576 188.68 75.9258V66.9023C187.807 65.2096 186.401 64.3633 184.461 64.3633C182.924 64.3633 181.74 64.9753 180.906 66.1992C180.073 67.4102 179.656 69.2396 179.656 71.6875ZM207.684 82.3906C204.676 82.3906 202.234 81.4466 200.359 79.5586C198.497 77.6576 197.566 75.1315 197.566 71.9805V71.3945C197.566 69.2852 197.97 67.4036 198.777 65.75C199.598 64.0833 200.743 62.7878 202.215 61.8633C203.686 60.9388 205.327 60.4766 207.137 60.4766C210.014 60.4766 212.234 61.3945 213.797 63.2305C215.372 65.0664 216.16 67.6641 216.16 71.0234V72.9375H202.352C202.495 74.6823 203.074 76.0625 204.09 77.0781C205.118 78.0938 206.408 78.6016 207.957 78.6016C210.132 78.6016 211.902 77.7227 213.27 75.9648L215.828 78.4062C214.982 79.6693 213.849 80.6523 212.43 81.3555C211.023 82.0456 209.441 82.3906 207.684 82.3906ZM207.117 64.2852C205.815 64.2852 204.76 64.7409 203.953 65.6523C203.159 66.5638 202.651 67.8333 202.43 69.4609H211.473V69.1094C211.368 67.5208 210.945 66.3229 210.203 65.5156C209.461 64.6953 208.432 64.2852 207.117 64.2852Z" fill="black"/>
</svg>
